<?xml version="1.0" standalone="no"?>
<!DOCTYPE svg PUBLIC "-//W3C//DTD SVG 20010904//EN"
 "http://www.w3.org/TR/2001/REC-SVG-20010904/DTD/svg10.dtd">
<svg version="1.0" xmlns="http://www.w3.org/2000/svg"
 width="256.000000pt" height="256.000000pt" viewBox="0 0 256.000000 256.000000"
 preserveAspectRatio="xMidYMid meet">
<metadata>
Created by potrace 1.16, written by Peter Selinger 2001-2019
</metadata>
<g transform="translate(0.000000,256.000000) scale(0.100000,-0.100000)"
fill="#000000" stroke="none">
<path d="M340 2540 c-19 -19 -20 -33 -20 -220 0 -187 1 -201 20 -220 13 -13
33 -20 60 -20 27 0 47 7 60 20 19 19 20 33 20 220 0 187 -1 201 -20 220 -13
13 -33 20 -60 20 -27 0 -47 -7 -60 -20z"/>
<path d="M1620 2540 c-19 -19 -20 -33 -20 -220 0 -187 1 -201 20 -220 13 -13
33 -20 60 -20 27 0 47 7 60 20 19 19 20 33 20 220 0 187 -1 201 -20 220 -13
13 -33 20 -60 20 -27 0 -47 -7 -60 -20z"/>
<path d="M80 2218 c-18 -13 -43 -36 -54 -51 -21 -28 -21 -33 -21 -807 0 -774
0 -779 21 -807 11 -15 36 -38 54 -51 l33 -22 503 0 504 0 0 80 0 80 -468 0
c-351 0 -471 3 -480 12 -9 9 -12 147 -12 560 l0 548 880 0 880 0 0 -160 0
-160 80 0 81 0 -3 349 c-3 337 -4 351 -24 378 -39 52 -81 73 -149 73 l-62 0
-7 -62 c-11 -107 -67 -168 -156 -168 -89 0 -145 61 -156 168 l-7 62 -477 0
-477 0 -7 -62 c-11 -107 -67 -168 -156 -168 -89 0 -145 61 -156 168 l-7 62
-62 0 c-48 0 -70 -5 -95 -22z"/>
<path d="M320 1440 l0 -160 160 0 160 0 0 160 0 160 -160 0 -160 0 0 -160z"/>
<path d="M800 1440 l0 -160 160 0 160 0 0 160 0 160 -160 0 -160 0 0 -160z"/>
<path d="M1280 1440 l0 -160 160 0 160 0 0 160 0 160 -160 0 -160 0 0 -160z"/>
<path d="M1762 1265 c-30 -7 -92 -32 -140 -55 -123 -61 -214 -154 -275 -281
-54 -111 -67 -169 -67 -289 0 -120 13 -178 67 -289 63 -131 153 -221 284 -284
111 -54 169 -67 289 -67 120 0 178 13 289 67 131 63 221 153 284 284 54 111
67 169 67 289 0 120 -13 178 -67 289 -63 131 -153 221 -284 284 -52 25 -118
50 -147 56 -70 15 -234 13 -300 -4z m289 -171 c148 -43 279 -175 323 -323 20
-70 20 -192 0 -262 -32 -110 -115 -215 -219 -277 -139 -84 -331 -84 -470 0
-149 90 -235 239 -235 408 0 167 84 315 230 406 100 62 255 82 371 48z"/>
<path d="M1780 940 c-19 -19 -20 -33 -20 -220 0 -187 1 -201 20 -220 19 -19
33 -20 220 -20 187 0 201 1 220 20 13 13 20 33 20 60 0 27 -7 47 -20 60 -18
18 -33 20 -160 20 l-140 0 0 140 c0 127 -2 142 -20 160 -13 13 -33 20 -60 20
-27 0 -47 -7 -60 -20z"/>
<path d="M320 960 l0 -160 160 0 160 0 0 160 0 160 -160 0 -160 0 0 -160z"/>
<path d="M800 960 l0 -160 160 0 160 0 0 160 0 160 -160 0 -160 0 0 -160z"/>
</g>
</svg>
