<?xml version="1.0" standalone="no"?>
<!DOCTYPE svg PUBLIC "-//W3C//DTD SVG 20010904//EN"
 "http://www.w3.org/TR/2001/REC-SVG-20010904/DTD/svg10.dtd">
<svg version="1.0" xmlns="http://www.w3.org/2000/svg"
 width="860.000000pt" height="900.000000pt" viewBox="0 0 860.000000 900.000000"
 preserveAspectRatio="xMidYMid meet">
<metadata>
Created by potrace 1.16, written by Peter Selinger 2001-2019
</metadata>
<g transform="translate(0.000000,900.000000) scale(0.100000,-0.100000)"
fill="#000000" stroke="none">
<path d="M3995 8589 c-675 -53 -1324 -274 -1889 -646 -828 -544 -1430 -1381
-1675 -2325 -305 -1181 -70 -2413 648 -3388 622 -845 1556 -1415 2586 -1579
475 -75 977 -65 1440 31 1353 277 2469 1238 2949 2536 278 755 321 1601 119
2382 -273 1059 -974 1964 -1937 2500 -671 374 -1471 548 -2241 489z m473
-2005 c495 -73 891 -433 1037 -943 34 -118 58 -341 50 -461 -22 -331 -153
-633 -375 -864 -194 -203 -405 -314 -701 -371 -337 -64 -775 82 -1037 344
-142 143 -257 329 -326 529 -59 172 -70 248 -62 472 7 220 12 250 62 405 73
225 153 362 301 516 283 294 666 430 1051 373z m-1133 -2466 c200 -191 465
-325 744 -373 108 -19 334 -19 442 0 275 48 524 170 722 355 l84 79 124 -84
c140 -94 276 -212 429 -371 188 -195 299 -364 411 -624 93 -216 133 -340 168
-520 50 -248 40 -308 -59 -357 l-44 -23 -2056 0 c-1997 0 -2056 1 -2097 19
-26 12 -52 35 -70 62 -38 57 -36 121 10 314 97 413 247 742 447 985 99 120
244 272 326 342 66 56 340 257 352 258 2 0 32 -28 67 -62z"/>
</g>
</svg>
